PathFileType	4	(X/Y/Z)	56_2_109_p1_0-155.trc
DataRate	CameraRate	NumFrames	NumMarkers	Units	OrigDataRate	OrigDataStartFrame	OrigNumFrames
52.0	52.0	5	27	m	52.0	19	156
Frame#	Time	RHip			RKnee			RAnkle			RBigToe			RSmallToe			RHeel			LHip			LKnee			LAnkle			LBigToe			LSmallToe			LHeel			Neck			Head			Nose			RShoulder			RElbow			RWrist			RThumb			RIndex			RPinky			LShoulder			LElbow			LWrist			LThumb			LIndex			LPinky			
		X1	Y1	Z1	X2	Y2	Z2	X3	Y3	Z3	X4	Y4	Z4	X5	Y5	Z5	X6	Y6	Z6	X7	Y7	Z7	X8	Y8	Z8	X9	Y9	Z9	X10	Y10	Z10	X11	Y11	Z11	X12	Y12	Z12	X13	Y13	Z13	X14	Y14	Z14	X15	Y15	Z15	X16	Y16	Z16	X17	Y17	Z17	X18	Y18	Z18	X19	Y19	Z19	X20	Y20	Z20	X21	Y21	Z21	X22	Y22	Z22	X23	Y23	Z23	X24	Y24	Z24	X25	Y25	Z25	X26	Y26	Z26	X27	Y27	Z27	
19	0.36538461538461536	0.49010357574257685	0.7238997124621172	0.30484806990213387	0.49637979870561966	0.8669558462266584	0.6853236160273908	0.5153077546179295	1.0737188805870117	1.0699882792936461	0.41011735985206926	0.8714391160745092	1.1420711247629296	0.48557316696872577	0.8669250919439911	1.1492374124714206	0.5156197221562957	1.1447267284320577	1.0968955236340352	0.29054884522520047	0.8097664993768043	0.32022012232912556	0.31298774695111153	0.9433658666138574	0.6599487757059498	0.3246946346338471	1.087613823877316	1.0024987941820334	0.25724165176383085	0.9021464615778662	1.1170419341756646	0.22000474454832278	0.9821228749802953	1.1038597126542646	0.3640158731229261	1.1617086519385962	1.0485207280642113	0.35385254587256215	0.5639005581601253	-0.2239720999691944	0.33085035516745265	0.41890569232087915	-0.44341498718231065	0.303154696076047	0.40410059865693426	-0.29815556534562637	0.5004865088545495	0.4970308702345541	-0.1338779449515982	0.5709902523668898	0.5835311254470134	0.11949650077368475	0.38883656349287904	0.528045737231831	0.3197560921868199	0.27305296144094454	0.6115811350613529	0.3854263128054557	0.26215357302007397	0.5516657940101003	0.4229803610215365	0.32981069647211536	0.5810929392273063	0.4412677422049838	0.2163878631594087	0.656870464797571	-0.17313382494041774	0.18089597257031792	0.7274136045414605	0.10917904935193447	0.1569270190729175	0.7754098379157768	0.3504254686974077	0.1773615677840847	0.7413627536231138	0.4444103655977851	0.16126624849823842	0.7680866792978649	0.47181136102365395	0.16136588720293804	0.8550396556714509	0.4711933404892402
20	0.38461538461538464	0.48935911466969456	0.7194802476662998	0.29680644100538867	0.49646022061868333	0.8672075525961637	0.6809718751109376	0.5139639381898372	1.0507692308062113	1.0613799011521878	0.41022607966335833	0.8715167722244191	1.142025620399603	0.49421745301375	0.8773177379052783	1.148773931831844	0.515445471805274	1.1449500139348416	1.0971616335602332	0.2938628591763737	0.8057140049107444	0.3115930086440312	0.31351293294308114	0.9431854222577175	0.6601871606612986	0.32458598572256453	1.0867651389055064	1.0063379606961147	0.25571574038187017	0.8995793067338225	1.1121328745583716	0.2199789771373816	0.982301878868827	1.103786753590142	0.36373428600940316	1.1609208073437107	1.0524139467241531	0.3538023930771196	0.5638148170531311	-0.22395576651290433	0.33068303338975363	0.41879611353360635	-0.4434135759381484	0.2963149721151106	0.39470936035820237	-0.29605265099123196	0.5011728633924442	0.4987384418966283	-0.1307692296207911	0.5694350792403547	0.5666819278499219	0.12047635646774843	0.3768871878889211	0.5151282490923527	0.3048375665277481	0.25833918309715387	0.5850192675812877	0.3670357880565787	0.25785539882402614	0.5585615196262058	0.39157095481836895	0.3155608322398077	0.5947179105008934	0.43223178661759476	0.2099366118737239	0.6598266159659134	-0.17360648626643707	0.18061262411782872	0.7433366078183753	0.10801262958778154	0.14426062689829924	0.8107763441253084	0.34983491469888167	0.1615086994300512	0.753224117275047	0.44021109536984765	0.14672399082576967	0.8400761738187456	0.47142704091850623	0.1548107406895962	0.8869686048598234	0.4716859272307259
21	0.40384615384615385	0.48958283939579633	0.7197377630261358	0.2968366022576306	0.49666181899434775	0.867489326409855	0.6807362342053903	0.5158798676711996	1.0714994138687732	1.0653901836009936	0.41824553255708474	0.8842328671708809	1.1457345396395109	0.4943969787691833	0.8776983462176403	1.1487427741873775	0.5154473958627434	1.1450949917384219	1.0971778015306701	0.28980889354458605	0.8049656960586917	0.317938754216336	0.3131725971660721	0.9459964268835243	0.6641992799028206	0.32470296568824586	1.086617022826402	1.0061172464175983	0.2564534943215044	0.9176153504662382	1.115996934738398	0.22003312770707548	0.9824712391178372	1.1037032118269592	0.36401278828181227	1.1614854986985432	1.047614909123124	0.3536368917765105	0.5630408284380763	-0.2274745450431333	0.33052734212456436	0.41813824993144	-0.44696580953364934	0.29152194375477597	0.3933694059500729	-0.2960685208415695	0.5010205035531663	0.49839950438283404	-0.130564168994601	0.573052678299619	0.5646339385999813	0.11296998252069596	0.3726700174980761	0.5073330420123204	0.2857431051269441	0.23498828353107257	0.5490939785149113	0.3362920278044684	0.23607816821345692	0.525265647790751	0.3555645925053492	0.29133464451389596	0.5790751745031708	0.4127394579178037	0.2095225876098233	0.6447955787323768	-0.17103068910929556	0.18049872650037851	0.7272022134000565	0.11308222920611301	0.144213264276534	0.8247700354527514	0.34614265261363336	0.1476656517032953	0.8070062928745463	0.43708513676908867	0.14403244600300102	0.870443245417705	0.4706661944957908	0.15393957492880234	0.8812744624605732	0.45941851736983486
22	0.4230769230769231	0.4894300970811608	0.7219738919906129	0.3001821906773604	0.4950888224836567	0.8646599637149243	0.6761181058253848	0.5159495861731327	1.0714669485237094	1.0652946844130111	0.4183300710816591	0.8845326927224606	1.1457718528024832	0.4943299752535942	0.8812470430548672	1.1485800956930354	0.515713495549745	1.1455777486810381	1.0974008437733946	0.28943069325507065	0.8047589574431024	0.31785242903268507	0.3129892221337722	0.9470392914691544	0.6643956280240675	0.3246918461145389	1.0866717435167417	1.0061334149556458	0.2570358324034611	0.9153709827607642	1.1121595681069798	0.22002996735637392	0.9824508233312527	1.1036535628645663	0.3553688483243237	1.1456707581763284	1.0479437923532808	0.35283756130349264	0.560819972377483	-0.23107437769653827	0.33033570382279914	0.41779609962791586	-0.4469467495262748	0.28690569695483703	0.39229265635835353	-0.29597828043697144	0.49259725835321433	0.48800552588207574	-0.12856736555842507	0.5756593141252019	0.548165449904382	0.11409369814628278	0.3645151892251139	0.4989050275656545	0.2670096581561298	0.2498773438003132	0.5913668092154858	0.2985487659836961	0.22662371587064875	0.5325592087386336	0.33597869077375414	0.27983325374073503	0.5572157523318193	0.35837829430059337	0.20929353592378744	0.6443936054047859	-0.1709806984107814	0.17577338269149964	0.742636621937251	0.11180754911586578	0.15178279405792286	0.8412519648606269	0.34671921231067687	0.16159931218938908	0.8563330861399953	0.43928712165112943	0.14574932581053157	0.87213885752189	0.47073639379755217	0.1493655930371566	0.8997318581664745	0.4636744012823801
23	0.4423076923076923	0.4891203149301938	0.7212424688693991	0.3043728507303918	0.49494539750181216	0.8642607174004779	0.6757152153144846	0.5161736512793491	1.072211943053907	1.0609421289870324	0.4183589545578079	0.884654525899011	1.1457458881129368	0.4948625754279276	0.8790876910843629	1.144392785545157	0.5252629525262308	1.1605035551180798	1.1012877497835576	0.2894685306750676	0.804556533274191	0.32187474159167734	0.3129519986718349	0.9465735022532843	0.6641781477715623	0.32488975319467667	1.0869226534415592	1.0061172405560788	0.25635302358322154	0.9179506450860307	1.1159543728963524	0.2199753610831234	0.9824766007976296	1.1035871180836678	0.36393002774764355	1.1609114398804743	1.0516602187059871	0.34835802138424937	0.5601854513953295	-0.23092015954048847	0.3233852677828206	0.4083653714146335	-0.44028974560346673	0.28033485662762436	0.3829107664177838	-0.2939694947679195	0.4921478185685642	0.4871826539304107	-0.13228919520301669	0.5740785133387454	0.5328318287354094	0.11169570580097685	0.365548796222402	0.5127701706161653	0.25391272671322285	0.2538098266391183	0.5808557673521351	0.2552904191791597	0.22100433058825628	0.5551920134040256	0.29368728085816487	0.2731457351937939	0.5584045723890466	0.3421018174847448	0.20936222848097802	0.64464249218013	-0.17099718207923936	0.17470158948814768	0.7399655131166534	0.10753757119992685	0.15186164026944532	0.839292650254712	0.3416836397760967	0.15599862410996074	0.8672138339685705	0.43277190108655533	0.14090304913089316	0.8803855963000727	0.4544980603465955	0.14939920854367025	0.8980931567840618	0.45490405580815435
